<mxfile host="app.diagrams.net" modified="2023-03-27T10:45:16.925Z" agent="Mozilla/5.0 (Windows NT 10.0; Win64; x64) AppleWebKit/537.36 (KHTML, like Gecko) Chrome/111.0.0.0 Safari/537.36 Edg/111.0.1661.51" version="21.1.1" etag="UfcKbegssGiHex-uw_bb" type="github">
  <diagram name="第 1 页" id="uWKzzM9BsnapSP6Ufpx_">
    <mxGraphModel>
      <root>
        <mxCell id="0" />
        <mxCell id="1" parent="0" />
      </root>
    </mxGraphModel>
  </diagram>
</mxfile>
